<mxfile host="app.diagrams.net" agent="Mozilla/5.0 (Macintosh; Intel Mac OS X 10_15_7) AppleWebKit/537.36 (KHTML, like Gecko) Chrome/135.0.0.0 Safari/537.36" version="26.2.12">
  <diagram name="Page-1" id="mDPnoqwoIcg_ytB89hKH">
    <mxGraphModel dx="1218" dy="1880" grid="1" gridSize="10" guides="1" tooltips="1" connect="1" arrows="1" fold="1" page="1" pageScale="1" pageWidth="850" pageHeight="1100" math="0" shadow="0">
      <root>
        <mxCell id="0" />
        <mxCell id="1" parent="0" />
        <mxCell id="dhuTMqTEDYYGjRphi2AF-8" value="" style="endArrow=open;endSize=12;dashed=1;html=1;rounded=0;exitX=0.994;exitY=0.49;exitDx=0;exitDy=0;exitPerimeter=0;entryX=0.006;entryY=0.529;entryDx=0;entryDy=0;entryPerimeter=0;" edge="1" parent="1">
          <mxGeometry width="160" relative="1" as="geometry">
            <mxPoint x="528.0799999999999" y="488" as="sourcePoint" />
            <mxPoint x="732.0999999999999" y="261.09000000000015" as="targetPoint" />
          </mxGeometry>
        </mxCell>
        <mxCell id="dhuTMqTEDYYGjRphi2AF-9" value="" style="endArrow=open;endSize=12;dashed=1;html=1;rounded=0;exitX=0;exitY=0;exitDx=250;exitDy=95;exitPerimeter=0;entryX=0;entryY=0.495;entryDx=0;entryDy=0;entryPerimeter=0;" edge="1" parent="1">
          <mxGeometry width="160" relative="1" as="geometry">
            <mxPoint x="460" y="55" as="sourcePoint" />
            <mxPoint x="730" y="253.94999999999982" as="targetPoint" />
          </mxGeometry>
        </mxCell>
        <mxCell id="dhuTMqTEDYYGjRphi2AF-10" value="" style="endArrow=open;endSize=12;dashed=1;html=1;rounded=0;exitX=0.75;exitY=1;exitDx=0;exitDy=0;exitPerimeter=0;entryX=0.609;entryY=0.2;entryDx=0;entryDy=0;entryPerimeter=0;" edge="1" parent="1" source="dhuTMqTEDYYGjRphi2AF-11">
          <mxGeometry width="160" relative="1" as="geometry">
            <mxPoint x="405" y="120.96000000000004" as="sourcePoint" />
            <mxPoint x="404.8800000000001" y="430" as="targetPoint" />
          </mxGeometry>
        </mxCell>
        <mxCell id="dhuTMqTEDYYGjRphi2AF-11" value="&lt;div&gt;GUI&lt;span style=&quot;color: rgba(0, 0, 0, 0); font-family: monospace; font-size: 0px; font-weight: 400; text-align: start; text-wrap-mode: nowrap; background-color: transparent;&quot;&gt;%3CmxGraphModel%3E%3Croot%3E%3CmxCell%20id%3D%220%22%2F%3E%3CmxCell%20id%3D%221%22%20parent%3D%220%22%2F%3E%3CmxCell%20id%3D%222%22%20value%3D%22graphicalUserInterface%26lt%3Bdiv%26gt%3B%26lt%3Bbr%26gt%3B%26lt%3B%2Fdiv%26gt%3B%22%20style%3D%22shape%3Dfolder%3BfontStyle%3D1%3BtabWidth%3D80%3BtabHeight%3D30%3BtabPosition%3Dleft%3Bhtml%3D1%3BboundedLbl%3D1%3BwhiteSpace%3Dwrap%3B%22%20vertex%3D%221%22%20parent%3D%221%22%3E%3CmxGeometry%20x%3D%22120%22%20y%3D%2270%22%20width%3D%22210%22%20height%3D%22120%22%20as%3D%22geometry%22%2F%3E%3C%2FmxCell%3E%3C%2Froot%3E%3C%2FmxGraphModel%3E&lt;/span&gt;&lt;/div&gt;" style="shape=folder;fontStyle=1;tabWidth=80;tabHeight=30;tabPosition=left;html=1;boundedLbl=1;whiteSpace=wrap;" vertex="1" parent="1">
          <mxGeometry x="250" y="-30" width="210" height="120" as="geometry" />
        </mxCell>
        <mxCell id="dhuTMqTEDYYGjRphi2AF-12" value="&lt;div&gt;Business Logic&lt;/div&gt;" style="shape=folder;fontStyle=1;tabWidth=80;tabHeight=30;tabPosition=left;html=1;boundedLbl=1;whiteSpace=wrap;" vertex="1" parent="1">
          <mxGeometry x="290" y="400" width="240" height="140" as="geometry" />
        </mxCell>
        <mxCell id="dhuTMqTEDYYGjRphi2AF-13" value="Model" style="shape=folder;fontStyle=1;tabWidth=80;tabHeight=30;tabPosition=left;html=1;boundedLbl=1;whiteSpace=wrap;" vertex="1" parent="1">
          <mxGeometry x="730" y="190" width="240" height="140" as="geometry" />
        </mxCell>
      </root>
    </mxGraphModel>
  </diagram>
</mxfile>
